# xmcd CD database file
#
# Track frame offsets:
#	150
#	17504
#	37654
#	52496
#	67157
#	91340
#	105674
#	123248
#	133248
#	151658
#	168049
#	184783
#	198737
#	223965
#	250479
#	264806
#	283412
#	299313
#
# Disc length: 4340 seconds
#
# Revision: 0
# Processed by: cddbd v1.5.2PL0 Copyright (c) Steve Scherf et al.
# Submitted via: CDex 1.70beta2
#
DISCID=1110f212
DTITLE=Various Artist - Hürther Jazz Nacht 99
DYEAR=1999
DGENRE=Jazz
TTITLE0=Christian Bleiming Boogie Trio - Six Wheel Chaser
TTITLE1=Nadja Schubert Quartett - First Song
TTITLE2=The Swamptones - Crawfish
TTITLE3=The Big Band Convention - Airman Spezial
TTITLE4=Sidney Ellis and her Yes Mama Band - Trouble in Mind
TTITLE5=City Ramblers Dixie-Band - Ain't She Sweet
TTITLE6=Francesca Simone - Un Carosello
TTITLE7=Markus Reinhardt Ensemble - Valse a Django
TTITLE8=Markus Fritzinger - Our Love is here to stay
TTITLE9=Christian Bleiming Boogie Trio - C-Jam Boogie
TTITLE10=Nadja Schubert Quartett - Softly as the Morning Sunrise
TTITLE11=The Swamptones - Crawfish Walk
TTITLE12=The Big Band Convention - One O'Clock Jump
TTITLE13=Sidney Ellist and her Yes Mama Band - Summertime
TTITLE14=City Ramblers Dixie-Band - Sunny Side of the Street
TTITLE15=Francesca Simone - When are we old
TTITLE16=Markus Reinhardt Ensemble - Nr. 15
TTITLE17=Markus Fritzinger and Friends - Laly's Waltz
EXTD=YEAR: 1999
EXTT0=
EXTT1=
EXTT2=
EXTT3=
EXTT4=
EXTT5=
EXTT6=
EXTT7=
EXTT8=
EXTT9=
EXTT10=
EXTT11=
EXTT12=
EXTT13=
EXTT14=
EXTT15=
EXTT16=
EXTT17=
PLAYORDER=
